<?xml version="1.0" encoding="UTF-8"?>
<!-- Created with Inkscape (http://www.inkscape.org/) -->
<svg width="408" height="408" version="1.1" viewBox="0 0 107.95 107.95" xmlns="http://www.w3.org/2000/svg" xmlns:cc="http://creativecommons.org/ns#" xmlns:dc="http://purl.org/dc/elements/1.1/" xmlns:rdf="http://www.w3.org/1999/02/22-rdf-syntax-ns#">
 <metadata>
  <rdf:RDF>
   <cc:Work rdf:about="">
    <dc:format>image/svg+xml</dc:format>
    <dc:type rdf:resource="http://purl.org/dc/dcmitype/StillImage"/>
    <dc:title/>
   </cc:Work>
  </rdf:RDF>
 </metadata>
 <g transform="translate(0 -189.05)">
  <path class="cls-19" d="m54.155 295.34a10.65 10.65 0 0 0 10.813-10.42h-21.659a10.65 10.65 0 0 0 10.846 10.42zm35.16-31.228v-28.639a34.111 34.111 0 0 0-27.066-32.768v-3.8011a8.192 8.192 0 0 0-16.384 0v3.5389a34.111 34.111 0 0 0-27.066 32.768v28.639l-10.813 10.42v5.21h91.979v-5.21zm-10.813 5.21h-48.693v-33.849a24.379 24.379 0 0 1 48.693 0z" fill="#02ccba" stroke-width="3.2768" style="isolation:isolate" data-name="&lt;Compound Path&gt;"/>
 </g>
</svg>
